<?xml version="1.0" encoding="UTF-8"?>
<!-- Generated by Pixelmator Pro 3.3.2 -->
<svg width="20" height="20" viewBox="0 0 20 20" xmlns="http://www.w3.org/2000/svg" xmlns:xlink="http://www.w3.org/1999/xlink">
    <g id="Associer">
        <path id="Trac" fill="#000000" stroke="none" d="M 15.767612 0 L 4.234387 0 C 3.296039 0 2.533381 0.762655 2.533381 1.699917 L 2.533381 19.125126 C 2.533381 19.414913 2.676819 19.684994 2.915802 19.848133 C 3.154783 20.011276 3.459302 20.045467 3.729202 19.93877 L 10.000273 17.460739 L 16.272131 19.93877 C 16.375134 19.979933 16.484379 19.999577 16.592836 19.999577 C 16.765436 19.999577 16.937609 19.948589 17.083958 19.848499 C 17.323849 19.685781 17.466618 19.415274 17.466618 19.125914 L 17.466618 1.699917 C 17.467344 0.762655 16.704691 0 15.767612 0 Z M 12.915044 9.619551 L 11.391123 10.726798 L 11.972877 12.518619 C 12.011858 12.638716 11.96924 12.770514 11.86733 12.844416 C 11.815615 12.881155 11.755961 12.900131 11.696245 12.900131 C 11.636168 12.900131 11.576149 12.881216 11.524436 12.844416 L 10.000696 11.737349 L 8.476835 12.844416 C 8.374745 12.918317 8.236399 12.918317 8.134611 12.844416 C 8.032883 12.770514 7.988809 12.639082 8.028337 12.518619 L 8.610939 10.726798 L 7.086715 9.619551 C 6.984622 9.545286 6.942004 9.414033 6.980742 9.293754 C 7.019544 9.173656 7.131455 9.092055 7.258162 9.092055 L 9.141646 9.092055 L 9.72431 7.301204 C 9.801485 7.060766 10.199728 7.060766 10.278358 7.301204 L 10.860292 9.092055 L 12.744204 9.092055 C 12.870544 9.092055 12.981913 9.173656 13.021196 9.293754 C 13.059937 9.413668 13.016954 9.545286 12.915044 9.619551 Z"/>
    </g>
</svg>
