<?xml version="1.0" encoding="UTF-8"?>
<!-- Generated by Pixelmator Pro 3.3.2 -->
<svg width="20" height="20" viewBox="0 0 20 20" xmlns="http://www.w3.org/2000/svg" xmlns:xlink="http://www.w3.org/1999/xlink">
    <g id="Associer">
        <g id="g1">
            <g id="g2">
                <path id="Trac" fill="#000000" stroke="none" d="M 19.66431 9.104357 L 16.633213 6.073259 L 16.633213 2.571829 C 16.633213 1.938725 16.120173 1.42564 15.486135 1.42564 C 14.853552 1.42564 14.340509 1.938725 14.340509 2.571829 L 14.340509 3.780598 L 12.083617 1.523624 C 10.967787 0.408398 9.027731 0.410376 7.914444 1.52564 L 0.335569 9.104357 C -0.111829 9.552642 -0.111829 10.277999 0.335569 10.725598 C 0.783169 11.173764 1.509938 11.173764 1.957375 10.725598 L 9.535524 3.146683 C 9.782397 2.901102 10.217523 2.901102 10.463102 3.145956 L 18.042543 10.725598 C 18.267294 10.9497 18.560308 11.061168 18.853245 11.061168 C 19.146788 11.061168 19.440289 10.949579 19.664351 10.725598 C 20.111912 10.278038 20.111912 9.552683 19.66431 9.104357 Z"/>
                <path id="path1" fill="#000000" stroke="none" d="M 10.398145 5.322428 C 10.177958 5.102362 9.821436 5.102362 9.601896 5.322428 L 2.935498 11.986847 C 2.83025 12.092055 2.770581 12.235698 2.770581 12.385597 L 2.770581 17.246374 C 2.770581 18.386993 3.695414 19.311787 4.83599 19.311787 L 8.136529 19.311787 L 8.136529 14.20034 L 11.862784 14.20034 L 11.862784 19.311787 L 15.163363 19.311787 C 16.303904 19.311787 17.228735 18.386993 17.228735 17.246416 L 17.228735 12.385597 C 17.228735 12.235698 17.16959 12.092055 17.063816 11.986847 L 10.398145 5.322428 Z"/>
            </g>
        </g>
    </g>
</svg>
