<?xml version="1.0" encoding="UTF-8"?>
<!-- Generated by Pixelmator Pro 3.3.2 -->
<svg width="70" height="74" viewBox="0 0 70 74" xmlns="http://www.w3.org/2000/svg" xmlns:xlink="http://www.w3.org/1999/xlink">
    <g id="Associer">
        <path id="Trac" fill="#929292" stroke="none" d="M 55.937664 38.528294 C 53.73539 35.607243 51.246483 34.147491 48.469181 34.147491 L 48.469181 11.373722 C 49.927536 11.373722 51.191074 10.810387 52.255516 9.683716 C 53.32217 8.556892 53.855644 7.221931 53.855644 5.680397 C 53.855644 4.138084 53.32217 2.803894 52.255516 1.677078 C 51.191074 0.550247 49.927685 -0.013237 48.469181 -0.013237 L 21.542168 -0.013237 C 20.083221 -0.013237 18.821157 0.550247 17.755243 1.677078 C 16.689178 2.803894 16.156296 4.137924 16.156296 5.680397 C 16.156296 7.222557 16.689178 8.556892 17.755243 9.683716 C 18.821157 10.810387 20.083662 11.373722 21.542168 11.373722 L 21.542168 34.14687 C 18.765158 34.14687 16.276106 35.607243 14.073978 38.528137 C 11.872147 41.449192 10.770863 44.732296 10.770863 48.380573 C 10.770863 49.151424 11.037453 49.818825 11.570484 50.382004 C 12.103811 50.94487 12.734842 51.226536 13.464169 51.226536 L 30.462231 51.226536 L 33.659832 72.799332 C 33.799831 73.600243 34.248714 74 35.006042 74 L 35.048927 74 C 35.384041 74 35.673031 73.874123 35.911179 73.62252 C 36.149181 73.3703 36.296398 73.06604 36.352402 72.710373 L 38.497787 51.226692 L 56.547771 51.226692 C 57.276947 51.226692 57.908863 50.945023 58.44101 50.38216 C 58.974632 49.819138 59.241516 49.151733 59.241516 48.38073 C 59.241959 44.732918 58.139645 41.449345 55.937664 38.528294 Z M 30.966822 32.724358 C 30.966822 33.139072 30.84082 33.479778 30.588083 33.747116 C 30.335642 34.014141 30.012905 34.147491 29.620316 34.147491 C 29.22802 34.147491 28.905136 34.014294 28.652546 33.747116 C 28.400105 33.480251 28.274105 33.139072 28.274105 32.724358 L 28.274105 12.797794 C 28.274105 12.382771 28.400105 12.04097 28.652546 11.774723 C 28.905136 11.508167 29.22802 11.374657 29.620316 11.374657 C 30.012905 11.374657 30.335642 11.507702 30.588083 11.774723 C 30.840673 12.041435 30.966822 12.382771 30.966822 12.797794 L 30.966822 32.724358 Z"/>
    </g>
    <g id="g1"/>
    <g id="g2"/>
    <g id="g3"/>
    <g id="g4"/>
    <g id="g5"/>
    <g id="g6"/>
    <g id="g7"/>
    <g id="g8"/>
    <g id="g9"/>
    <g id="g10"/>
    <g id="g11"/>
    <g id="g12"/>
    <g id="g13"/>
    <g id="g14"/>
    <g id="g15"/>
</svg>
